<svg xmlns="http://www.w3.org/2000/svg" width="24" height="24"><path d="M1.8 7.4c-.2 0-.4-.1-.6-.2-.3-.1-.5-.4-.6-.7-.1-.3 0-.7.1-1 .4-.6 1.2-.8 1.8-.5.3.2.5.5.6.8s0 .7-.1 1c-.3.4-.7.6-1.2.6zM6.6 10.1c-.2 0-.4-.1-.6-.2-.7-.3-.9-1.1-.5-1.7.3-.6 1.2-.8 1.8-.5.5.4.7 1.2.4 1.8-.2.4-.7.6-1.1.6zM17.4 16.4c-.2 0-.4-.1-.6-.2-.3-.2-.5-.4-.6-.8s0-.7.1-1c.3-.6 1.2-.8 1.8-.5.3.2.5.4.6.8.1.3 0 .7-.1 1-.3.5-.7.7-1.2.7zM22.2 19.1c-.2 0-.4-.1-.6-.2-.3-.2-.5-.4-.6-.8-.1-.3 0-.7.1-1 .3-.6 1.2-.8 1.8-.5.6.4.8 1.1.5 1.8-.4.5-.8.7-1.2.7zM1.8 19.1c-.5 0-.9-.2-1.1-.6-.2-.3-.2-.6-.1-1 .1-.3.3-.6.6-.8.6-.3 1.4-.1 1.8.5.2.3.2.6.1 1-.1.3-.3.6-.6.8-.2.1-.4.1-.7.1zM6.6 16.4c-.5 0-.9-.2-1.1-.6-.4-.6-.1-1.4.5-1.8.6-.3 1.4-.1 1.8.5.4.6.1 1.4-.5 1.8-.3 0-.5.1-.7.1zM17.4 10.1c-.5 0-.9-.2-1.1-.6-.3-.6-.1-1.4.5-1.7.6-.3 1.4-.1 1.8.5.3.6.1 1.4-.5 1.8h-.7zM22.2 7.4c-.5 0-.9-.2-1.1-.6-.4-.6-.1-1.4.5-1.8.6-.3 1.4-.1 1.8.5.4.6.1 1.4-.5 1.8-.3 0-.5.1-.7.1zM6.1 23.4c-.2 0-.4-.1-.6-.2-.3-.2-.5-.4-.6-.8-.1-.3 0-.7.1-1 .3-.6 1.2-.8 1.8-.5.6.4.8 1.1.5 1.7-.3.6-.7.8-1.2.8zM8.9 18.7c-.2 0-.4-.1-.6-.2-.6-.4-.8-1.1-.5-1.8.3-.6 1.2-.8 1.8-.5.6.4.8 1.1.5 1.8-.3.5-.8.7-1.2.7zM15.1 7.9c-.2 0-.4-.1-.6-.2-.6-.4-.8-1.1-.5-1.8.3-.6 1.2-.8 1.8-.5.6.4.8 1.1.5 1.8-.3.4-.7.7-1.2.7zM17.9 3.1c-.2 0-.4-.1-.6-.2-.3-.2-.5-.5-.6-.8-.1-.3 0-.7.1-1 .3-.6 1.2-.8 1.7-.5.6.4.8 1.1.5 1.8-.2.5-.7.7-1.1.7zM17.9 23.4c-.5 0-.9-.2-1.1-.6-.2-.3-.2-.6-.1-1 .1-.3.3-.6.6-.8.6-.3 1.4-.1 1.7.5.2.3.2.6.1 1-.1.3-.3.6-.6.8-.2.1-.4.1-.6.1zM15.1 18.7c-.5 0-.9-.2-1.1-.6-.2-.3-.2-.6-.1-1 .1-.3.3-.6.6-.8.6-.3 1.4-.1 1.8.5.4.6.1 1.4-.5 1.8-.2 0-.4.1-.7.1zM8.9 7.9c-.5 0-.9-.3-1.1-.7-.2-.3-.2-.6-.1-1 .1-.3.3-.6.6-.8.5-.3 1.3-.1 1.7.5.2.3.2.7.1 1-.1.3-.3.6-.6.8-.2.1-.4.2-.6.2zM6.1 3.1c-.4 0-.9-.2-1.1-.6-.2-.3-.2-.6-.1-1 .1-.3.3-.6.6-.8.6-.3 1.4-.1 1.8.5.4.6.1 1.4-.5 1.8-.2.1-.4.1-.7.1z"/></svg>