<svg xmlns="http://www.w3.org/2000/svg" width="64" height="64"><g fill="#1C769B"><path d="M1 31.999c0 12.27 7.13 22.875 17.471 27.898L3.683 19.383A30.907 30.907 0 0 0 1 31.999zM32.544 34.71l-9.302 27.028A30.987 30.987 0 0 0 32 63.001a30.97 30.97 0 0 0 10.294-1.757 2.863 2.863 0 0 1-.221-.427L32.544 34.71z"/><path d="M52.928 30.436c0-3.833-1.378-6.485-2.556-8.549-1.573-2.557-3.047-4.719-3.047-7.271 0-2.851 2.161-5.504 5.206-5.504.138 0 .268.019.4.026A30.867 30.867 0 0 0 32 .999c-10.832 0-20.358 5.557-25.9 13.972.728.023 1.413.038 1.994.038 3.241 0 8.263-.394 8.263-.394 1.67-.1 1.866 2.357.196 2.553 0 0-1.679.198-3.548.297l11.289 33.577 6.785-20.346-4.827-13.231c-1.672-.099-3.254-.297-3.254-.297-1.67-.099-1.475-2.652.198-2.553 0 0 5.119.394 8.165.394 3.242 0 8.262-.394 8.262-.394 1.672-.1 1.868 2.357.197 2.553 0 0-1.681.198-3.547.297l11.203 33.322 3.095-10.331c1.335-4.29 2.357-7.368 2.357-10.02zM59.413 20.314c0 3.145-.588 6.681-2.359 11.104l-9.468 27.375C56.802 53.421 63 43.435 63 32a30.852 30.852 0 0 0-3.797-14.874c.135.988.21 2.046.21 3.188z"/></g><path fill="#2795B7" d="M47.326 14.615c0-2.851 2.161-5.504 5.206-5.504.138 0 .268.019.4.026A30.875 30.875 0 0 0 32 .999c-10.832 0-20.358 5.557-25.9 13.972.728.023 1.413.038 1.994.038 3.241 0 8.263-.394 8.263-.394 1.67-.1 1.866 2.357.196 2.553 0 0-1.679.198-3.548.297l4.305 12.804a28.251 28.251 0 0 0 9.416 1.603 28.73 28.73 0 0 0 4.059-.288l.295-.887-4.827-13.231c-1.672-.099-3.254-.297-3.254-.297-1.67-.099-1.475-2.652.198-2.553 0 0 5.119.394 8.165.394 3.242 0 8.262-.394 8.262-.394 1.672-.1 1.868 2.357.197 2.553 0 0-1.681.198-3.547.297l3.73 11.096c3.786-2.036 6.994-4.911 9.333-8.36-1.127-1.871-2.011-3.613-2.011-5.587z"/><path fill="#3FB5D1" d="M32 .999c-9.727 0-18.391 4.49-24.075 11.498 4.989 1.037 10.468 1.612 16.218 1.612 10.888 0 20.808-2.057 28.267-5.431A30.867 30.867 0 0 0 32 .999z"/></svg>